STARTFONT 2.3
FONT -FontForge-Courgette-Book-R-Normal--10-100-72-72-P-52-ISO10646-1
SIZE 10 72 72  2
FONTBOUNDINGBOX 13 13 -2 -3
COMMENT "Generated by fontforge, http://fontforge.sourceforge.net"
COMMENT "Copyright (c) 2012, Sorkin Type Co (www.sorkintype.com) with Reserved Font Name "Courgette"."
STARTPROPERTIES 41
FOUNDRY "FontForge"
FAMILY_NAME "Courgette"
WEIGHT_NAME "Book"
SLANT "R"
SETWIDTH_NAME "Normal"
ADD_STYLE_NAME ""
PIXEL_SIZE 10
POINT_SIZE 100
RESOLUTION_X 72
RESOLUTION_Y 72
SPACING "P"
AVERAGE_WIDTH 52
CHARSET_REGISTRY "ISO10646"
CHARSET_ENCODING "1"
FONTNAME_REGISTRY ""
CHARSET_COLLECTIONS "ISO8859-2 ISO8859-9 ISO8859-4 ISO10646-1"
BITS_PER_PIXEL 2
FONT_NAME "Courgette-Regular"
FACE_NAME "Courgette Regular"
COPYRIGHT "Copyright (c) 2012, Sorkin Type Co (www.sorkintype.com) with Reserved Font Name "Courgette"."
FONT_VERSION "1.002"
FONT_ASCENT 8
FONT_DESCENT 2
UNDERLINE_POSITION -1
UNDERLINE_THICKNESS 1
X_HEIGHT 4
CAP_HEIGHT 7
DEFAULT_CHAR 1
RAW_ASCENT 799
RAW_DESCENT 200
NORM_SPACE 3
RELATIVE_WEIGHT 40
RELATIVE_SETWIDTH 50
SUPERSCRIPT_X 0
SUPERSCRIPT_Y 4
SUPERSCRIPT_SIZE 6
SUBSCRIPT_X 0
SUBSCRIPT_Y 1
SUBSCRIPT_SIZE 6
AVG_LOWERCASE_WIDTH 51
AVG_UPPERCASE_WIDTH 58
ENDPROPERTIES
CHARS 407
STARTCHAR .null.dup1
ENCODING 0
SWIDTH 0 0
DWIDTH 0 0
BBX 1 1 0 0
BITMAP
00
ENDCHAR
STARTCHAR uni0001
ENCODING 1
SWIDTH 0 0
DWIDTH 0 0
BBX 1 1 0 0
BITMAP
00
ENDCHAR
STARTCHAR uni0002
ENCODING 2
SWIDTH 0 0
DWIDTH 0 0
BBX 1 1 0 0
BITMAP
00
ENDCHAR
STARTCHAR uni0003
ENCODING 3
SWIDTH 0 0
DWIDTH 0 0
BBX 1 1 0 0
BITMAP
00
ENDCHAR
STARTCHAR uni0004
ENCODING 4
SWIDTH 0 0
DWIDTH 0 0
BBX 1 1 0 0
BITMAP
00
ENDCHAR
STARTCHAR uni0005
ENCODING 5
SWIDTH 0 0
DWIDTH 0 0
BBX 1 1 0 0
BITMAP
00
ENDCHAR
STARTCHAR uni0006
ENCODING 6
SWIDTH 0 0
DWIDTH 0 0
BBX 1 1 0 0
BITMAP
00
ENDCHAR
STARTCHAR uni0007
ENCODING 7
SWIDTH 0 0
DWIDTH 0 0
BBX 1 1 0 0
BITMAP
00
ENDCHAR
STARTCHAR uni0008
ENCODING 8
SWIDTH 0 0
DWIDTH 0 0
BBX 1 1 0 0
BITMAP
00
ENDCHAR
STARTCHAR uni0009
ENCODING 9
SWIDTH 0 0
DWIDTH 0 0
BBX 1 1 0 0
BITMAP
00
ENDCHAR
STARTCHAR nonmarkingreturn
ENCODING 13
SWIDTH 0 0
DWIDTH 0 0
BBX 1 1 0 0
BITMAP
00
ENDCHAR
STARTCHAR uni0015
ENCODING 21
SWIDTH 0 0
DWIDTH 0 0
BBX 1 1 0 0
BITMAP
00
ENDCHAR
STARTCHAR uni0016
ENCODING 22
SWIDTH 0 0
DWIDTH 0 0
BBX 1 1 0 0
BITMAP
00
ENDCHAR
STARTCHAR uni0017
ENCODING 23
SWIDTH 0 0
DWIDTH 0 0
BBX 1 1 0 0
BITMAP
00
ENDCHAR
STARTCHAR uni0018
ENCODING 24
SWIDTH 0 0
DWIDTH 0 0
BBX 1 1 0 0
BITMAP
00
ENDCHAR
STARTCHAR uni0019
ENCODING 25
SWIDTH 0 0
DWIDTH 0 0
BBX 1 1 0 0
BITMAP
00
ENDCHAR
STARTCHAR space
ENCODING 32
SWIDTH 307 0
DWIDTH 3 0
BBX 1 1 0 0
BITMAP
00
ENDCHAR
STARTCHAR exclam
ENCODING 33
SWIDTH 417 0
DWIDTH 4 0
BBX 4 8 1 0
BITMAP
09
1C
34
30
50
40
D0
40
ENDCHAR
STARTCHAR quotedbl
ENCODING 34
SWIDTH 437 0
DWIDTH 4 0
BBX 4 3 1 6
BITMAP
11
66
84
ENDCHAR
STARTCHAR numbersign
ENCODING 35
SWIDTH 725 0
DWIDTH 7 0
BBX 7 8 0 0
BITMAP
0198
0264
0230
2FF8
0590
7FF4
0880
1540
ENDCHAR
STARTCHAR dollar
ENCODING 36
SWIDTH 545 0
DWIDTH 5 0
BBX 6 11 0 -2
BITMAP
0060
0690
0C20
18A0
1890
0D00
0700
6300
7900
2000
1000
ENDCHAR
STARTCHAR percent
ENCODING 37
SWIDTH 876 0
DWIDTH 9 0
BBX 8 8 0 0
BITMAP
1A05
3318
6620
2890
0299
0633
0866
2429
ENDCHAR
STARTCHAR ampersand
ENCODING 38
SWIDTH 563 0
DWIDTH 6 0
BBX 6 8 0 0
BITMAP
0A90
2860
35D0
2900
2900
63D0
9240
6900
ENDCHAR
STARTCHAR quotesingle
ENCODING 39
SWIDTH 231 0
DWIDTH 2 0
BBX 2 3 1 6
BITMAP
10
60
80
ENDCHAR
STARTCHAR parenleft
ENCODING 40
SWIDTH 478 0
DWIDTH 5 0
BBX 5 12 1 -2
BITMAP
0040
0240
0900
2800
3000
6000
9000
D000
D000
9000
6000
2400
ENDCHAR
STARTCHAR parenright
ENCODING 41
SWIDTH 478 0
DWIDTH 5 0
BBX 5 12 -1 -2
BITMAP
0100
0240
0180
01C0
00C0
01C0
0180
0240
0600
0900
2400
9000
ENDCHAR
STARTCHAR asterisk
ENCODING 42
SWIDTH 518 0
DWIDTH 5 0
BBX 4 4 1 4
BITMAP
0C
6A
28
48
ENDCHAR
STARTCHAR plus
ENCODING 43
SWIDTH 617 0
DWIDTH 6 0
BBX 5 5 1 1
BITMAP
0400
1800
AE40
1800
1400
ENDCHAR
STARTCHAR comma
ENCODING 44
SWIDTH 312 0
DWIDTH 3 0
BBX 2 3 0 -1
BITMAP
60
60
80
ENDCHAR
STARTCHAR hyphen
ENCODING 45
SWIDTH 452 0
DWIDTH 5 0
BBX 3 1 1 3
BITMAP
B8
ENDCHAR
STARTCHAR period
ENCODING 46
SWIDTH 270 0
DWIDTH 3 0
BBX 2 2 0 -1
BITMAP
A0
50
ENDCHAR
STARTCHAR slash
ENCODING 47
SWIDTH 405 0
DWIDTH 4 0
BBX 7 11 -1 -2
BITMAP
0004
0024
0020
0090
0180
0200
0600
0800
2400
2000
9000
ENDCHAR
STARTCHAR zero
ENCODING 48
SWIDTH 621 0
DWIDTH 6 0
BBX 7 8 0 0
BITMAP
02A0
0924
1834
2430
3060
60D0
6280
2A00
ENDCHAR
STARTCHAR one
ENCODING 49
SWIDTH 405 0
DWIDTH 4 0
BBX 4 8 0 0
BITMAP
07
2B
06
09
0C
18
20
50
ENDCHAR
STARTCHAR two
ENCODING 50
SWIDTH 524 0
DWIDTH 5 0
BBX 6 8 0 0
BITMAP
0A80
1890
28D0
0280
0A00
1800
6000
AB40
ENDCHAR
STARTCHAR three
ENCODING 51
SWIDTH 537 0
DWIDTH 5 0
BBX 6 8 0 0
BITMAP
0A80
1890
2890
0280
0B00
0240
6300
6900
ENDCHAR
STARTCHAR four
ENCODING 52
SWIDTH 529 0
DWIDTH 5 0
BBX 5 8 0 0
BITMAP
0800
0C00
1840
24C0
6180
6B80
0600
0800
ENDCHAR
STARTCHAR five
ENCODING 53
SWIDTH 540 0
DWIDTH 5 0
BBX 6 8 0 0
BITMAP
0BB0
0C50
1800
2F40
11C0
0180
9340
6900
ENDCHAR
STARTCHAR six
ENCODING 54
SWIDTH 554 0
DWIDTH 6 0
BBX 6 8 0 0
BITMAP
0290
0D60
2840
3A40
74C0
70C0
6280
2A00
ENDCHAR
STARTCHAR seven
ENCODING 55
SWIDTH 473 0
DWIDTH 5 0
BBX 5 7 1 1
BITMAP
BA40
0600
0C00
2400
6000
9000
D000
ENDCHAR
STARTCHAR eight
ENCODING 56
SWIDTH 524 0
DWIDTH 5 0
BBX 6 8 0 0
BITMAP
0B80
1890
1890
1D80
0E00
2700
6200
2900
ENDCHAR
STARTCHAR nine
ENCODING 57
SWIDTH 554 0
DWIDTH 6 0
BBX 6 8 0 0
BITMAP
0680
1890
2490
35D0
1AC0
0180
6200
6900
ENDCHAR
STARTCHAR colon
ENCODING 58
SWIDTH 312 0
DWIDTH 3 0
BBX 3 5 0 -1
BITMAP
28
10
00
A0
50
ENDCHAR
STARTCHAR semicolon
ENCODING 59
SWIDTH 312 0
DWIDTH 3 0
BBX 3 6 0 -1
BITMAP
28
14
00
60
60
80
ENDCHAR
STARTCHAR less
ENCODING 60
SWIDTH 637 0
DWIDTH 6 0
BBX 5 5 1 0
BITMAP
0640
6800
D000
2800
0240
ENDCHAR
STARTCHAR equal
ENCODING 61
SWIDTH 617 0
DWIDTH 6 0
BBX 5 3 1 2
BITMAP
AA40
0000
AA40
ENDCHAR
STARTCHAR greater
ENCODING 62
SWIDTH 606 0
DWIDTH 6 0
BBX 5 5 1 0
BITMAP
A000
1A00
0740
2800
9000
ENDCHAR
STARTCHAR question
ENCODING 63
SWIDTH 516 0
DWIDTH 5 0
BBX 5 8 1 0
BITMAP
1A00
3240
2700
1D00
3400
5000
4000
D000
ENDCHAR
STARTCHAR at
ENCODING 64
SWIDTH 905 0
DWIDTH 9 0
BBX 9 8 0 -1
BITMAP
01A900
090280
24A880
632880
563240
626900
340000
0A9000
ENDCHAR
STARTCHAR A
ENCODING 65
SWIDTH 615 0
DWIDTH 6 0
BBX 8 8 -1 0
BITMAP
001D
0059
019C
0228
0BBC
0830
2460
A074
ENDCHAR
STARTCHAR B
ENCODING 66
SWIDTH 551 0
DWIDTH 6 0
BBX 6 8 0 0
BITMAP
1A90
2830
1C70
25D0
7B40
6180
9280
6A00
ENDCHAR
STARTCHAR C
ENCODING 67
SWIDTH 533 0
DWIDTH 5 0
BBX 6 8 0 0
BITMAP
02A0
0D30
28A0
3080
6000
6000
6040
2A40
ENDCHAR
STARTCHAR D
ENCODING 68
SWIDTH 630 0
DWIDTH 6 0
BBX 7 8 0 0
BITMAP
2E90
1434
0D24
2824
3430
7090
6280
6900
ENDCHAR
STARTCHAR E
ENCODING 69
SWIDTH 509 0
DWIDTH 5 0
BBX 6 8 0 0
BITMAP
0690
1C60
24D0
2400
1E00
7400
A140
6A00
ENDCHAR
STARTCHAR F
ENCODING 70
SWIDTH 518 0
DWIDTH 5 0
BBX 6 8 0 0
BITMAP
2E10
63A0
1600
0900
1F80
1800
2400
6000
ENDCHAR
STARTCHAR G
ENCODING 71
SWIDTH 598 0
DWIDTH 6 0
BBX 6 8 0 0
BITMAP
02A0
0920
2870
34D0
7000
62E0
6180
2A00
ENDCHAR
STARTCHAR H
ENCODING 72
SWIDTH 668 0
DWIDTH 7 0
BBX 8 8 -1 0
BITMAP
0B43
0347
0306
0709
0D08
0C24
2830
6028
ENDCHAR
STARTCHAR I
ENCODING 73
SWIDTH 327 0
DWIDTH 3 0
BBX 4 8 0 0
BITMAP
2D
09
0D
0C
18
24
60
80
ENDCHAR
STARTCHAR J
ENCODING 74
SWIDTH 393 0
DWIDTH 4 0
BBX 6 11 -2 -3
BITMAP
02F0
0630
0070
0060
0090
01C0
0280
0340
0A00
1C00
6000
ENDCHAR
STARTCHAR K
ENCODING 75
SWIDTH 616 0
DWIDTH 6 0
BBX 8 8 -1 0
BITMAP
0F09
0309
0718
0660
0A80
1DC0
28A0
6028
ENDCHAR
STARTCHAR L
ENCODING 76
SWIDTH 517 0
DWIDTH 5 0
BBX 6 8 0 0
BITMAP
0290
0960
1C90
2A80
3400
7000
9500
EA80
ENDCHAR
STARTCHAR M
ENCODING 77
SWIDTH 931 0
DWIDTH 9 0
BBX 11 8 -1 0
BITMAP
002874
00A4B0
027260
066690
09A8C0
18A8C0
20B180
9090E0
ENDCHAR
STARTCHAR N
ENCODING 78
SWIDTH 708 0
DWIDTH 7 0
BBX 8 8 0 0
BITMAP
0349
0B06
1709
234C
6258
52A0
91E0
8090
ENDCHAR
STARTCHAR O
ENCODING 79
SWIDTH 655 0
DWIDTH 7 0
BBX 7 8 0 0
BITMAP
02A0
0A18
1818
3428
7034
6060
61C0
2A00
ENDCHAR
STARTCHAR P
ENCODING 80
SWIDTH 553 0
DWIDTH 6 0
BBX 7 8 -1 0
BITMAP
06A4
090C
030C
0628
0B90
0C00
2800
6000
ENDCHAR
STARTCHAR Q
ENCODING 81
SWIDTH 655 0
DWIDTH 7 0
BBX 7 10 0 -2
BITMAP
02A0
0D14
2818
3024
7070
3090
2680
1F00
01D0
0068
ENDCHAR
STARTCHAR R
ENCODING 82
SWIDTH 623 0
DWIDTH 6 0
BBX 6 8 0 0
BITMAP
1A90
1830
0D30
18A0
2F40
3700
A280
80E0
ENDCHAR
STARTCHAR S
ENCODING 83
SWIDTH 474 0
DWIDTH 5 0
BBX 6 8 0 0
BITMAP
0A80
1850
2490
2580
1C00
0A00
9600
6800
ENDCHAR
STARTCHAR T
ENCODING 84
SWIDTH 471 0
DWIDTH 5 0
BBX 7 8 0 0
BITMAP
2E04
63A0
1700
0600
0900
0C00
1800
2000
ENDCHAR
STARTCHAR U
ENCODING 85
SWIDTH 624 0
DWIDTH 6 0
BBX 7 8 0 0
BITMAP
0D08
0D28
1830
24A0
30D0
62D0
95C0
B4A0
ENDCHAR
STARTCHAR V
ENCODING 86
SWIDTH 587 0
DWIDTH 6 0
BBX 6 8 1 0
BITMAP
B430
5830
3460
60D0
9240
C900
A400
D000
ENDCHAR
STARTCHAR W
ENCODING 87
SWIDTH 941 0
DWIDTH 9 0
BBX 10 8 0 0
BITMAP
2D0060
1A0470
0D3870
18B060
36A090
369180
689200
346800
ENDCHAR
STARTCHAR X
ENCODING 88
SWIDTH 552 0
DWIDTH 6 0
BBX 8 8 -1 0
BITMAP
0246
0358
0360
02C0
0280
0680
18D0
6074
ENDCHAR
STARTCHAR Y
ENCODING 89
SWIDTH 580 0
DWIDTH 6 0
BBX 7 11 0 -3
BITMAP
0D18
0C28
1870
24A0
31D0
A2C0
9680
B640
0600
0C00
6400
ENDCHAR
STARTCHAR Z
ENCODING 90
SWIDTH 501 0
DWIDTH 5 0
BBX 6 8 0 0
BITMAP
20A0
2FA0
0180
0340
0D00
3400
A000
EB40
ENDCHAR
STARTCHAR bracketleft
ENCODING 91
SWIDTH 396 0
DWIDTH 4 0
BBX 5 11 0 -2
BITMAP
0180
0300
0600
0900
0C00
1800
2400
3000
6000
9000
9000
ENDCHAR
STARTCHAR backslash
ENCODING 92
SWIDTH 464 0
DWIDTH 5 0
BBX 4 11 0 -2
BITMAP
40
50
20
20
24
14
08
08
09
06
02
ENDCHAR
STARTCHAR bracketright
ENCODING 93
SWIDTH 394 0
DWIDTH 4 0
BBX 6 11 -1 -2
BITMAP
0090
0090
00C0
0180
0240
0300
0600
0900
0C00
1800
6400
ENDCHAR
STARTCHAR asciicircum
ENCODING 94
SWIDTH 540 0
DWIDTH 5 0
BBX 4 4 1 4
BITMAP
18
2D
56
82
ENDCHAR
STARTCHAR underscore
ENCODING 95
SWIDTH 530 0
DWIDTH 5 0
BBX 7 1 -2 -2
BITMAP
6AA8
ENDCHAR
STARTCHAR grave
ENCODING 96
SWIDTH 219 0
DWIDTH 2 0
BBX 2 3 0 5
BITMAP
50
60
10
ENDCHAR
STARTCHAR a
ENCODING 97
SWIDTH 541 0
DWIDTH 5 0
BBX 6 5 0 0
BITMAP
0A90
31C0
6240
9700
7680
ENDCHAR
STARTCHAR b
ENCODING 98
SWIDTH 525 0
DWIDTH 5 0
BBX 5 8 0 0
BITMAP
0C00
1C00
1800
2A80
35C0
6180
9340
6900
ENDCHAR
STARTCHAR c
ENCODING 99
SWIDTH 465 0
DWIDTH 5 0
BBX 5 5 0 0
BITMAP
1A40
3640
A100
9100
7900
ENDCHAR
STARTCHAR d
ENCODING 100
SWIDTH 557 0
DWIDTH 6 0
BBX 7 8 0 0
BITMAP
0024
0030
0060
0AD0
24C0
6280
A740
79C0
ENDCHAR
STARTCHAR e
ENCODING 101
SWIDTH 471 0
DWIDTH 5 0
BBX 5 5 0 0
BITMAP
0A40
3640
7A00
A100
7A00
ENDCHAR
STARTCHAR f
ENCODING 102
SWIDTH 393 0
DWIDTH 4 0
BBX 6 10 0 -1
BITMAP
0280
0690
0C80
0C00
2F00
2400
3000
6000
9000
8000
ENDCHAR
STARTCHAR g
ENCODING 103
SWIDTH 526 0
DWIDTH 5 0
BBX 6 8 0 -3
BITMAP
0A90
31C0
6280
9740
7B00
0600
1800
2000
ENDCHAR
STARTCHAR h
ENCODING 104
SWIDTH 555 0
DWIDTH 6 0
BBX 5 8 0 0
BITMAP
0900
0D00
0C00
1AC0
29C0
3680
A340
8280
ENDCHAR
STARTCHAR i
ENCODING 105
SWIDTH 286 0
DWIDTH 3 0
BBX 3 8 0 0
BITMAP
0C
04
00
24
24
60
90
B0
ENDCHAR
STARTCHAR j
ENCODING 106
SWIDTH 281 0
DWIDTH 3 0
BBX 5 11 -2 -3
BITMAP
0180
0040
0000
0340
0240
0300
0600
0900
0C00
2400
6000
ENDCHAR
STARTCHAR k
ENCODING 107
SWIDTH 497 0
DWIDTH 5 0
BBX 5 8 0 0
BITMAP
0900
0C00
0C00
19C0
2680
3D00
AD00
8740
ENDCHAR
STARTCHAR l
ENCODING 108
SWIDTH 279 0
DWIDTH 3 0
BBX 3 8 0 0
BITMAP
08
0C
18
24
30
60
90
B0
ENDCHAR
STARTCHAR m
ENCODING 109
SWIDTH 814 0
DWIDTH 8 0
BBX 8 5 0 0
BITMAP
26CE
29AA
35CC
A258
821D
ENDCHAR
STARTCHAR n
ENCODING 110
SWIDTH 561 0
DWIDTH 6 0
BBX 5 5 0 0
BITMAP
26C0
29C0
3580
A240
8280
ENDCHAR
STARTCHAR o
ENCODING 111
SWIDTH 514 0
DWIDTH 5 0
BBX 5 5 0 0
BITMAP
1A40
3580
6280
9340
6900
ENDCHAR
STARTCHAR p
ENCODING 112
SWIDTH 550 0
DWIDTH 6 0
BBX 6 8 -1 -3
BITMAP
0DA0
0E30
0C30
1890
2A40
3000
6000
9000
ENDCHAR
STARTCHAR q
ENCODING 113
SWIDTH 533 0
DWIDTH 5 0
BBX 6 8 0 -3
BITMAP
0A90
35C0
6280
A740
7B00
0600
0900
0500
ENDCHAR
STARTCHAR r
ENCODING 114
SWIDTH 407 0
DWIDTH 4 0
BBX 5 5 0 0
BITMAP
3640
2900
3400
6000
9000
ENDCHAR
STARTCHAR s
ENCODING 115
SWIDTH 423 0
DWIDTH 4 0
BBX 4 5 0 0
BITMAP
1A
32
28
4C
A8
ENDCHAR
STARTCHAR t
ENCODING 116
SWIDTH 358 0
DWIDTH 4 0
BBX 4 7 0 0
BITMAP
04
0C
2E
24
30
60
38
ENDCHAR
STARTCHAR u
ENCODING 117
SWIDTH 553 0
DWIDTH 6 0
BBX 6 5 0 0
BITMAP
2490
25C0
7380
9A40
A680
ENDCHAR
STARTCHAR v
ENCODING 118
SWIDTH 510 0
DWIDTH 5 0
BBX 5 5 0 0
BITMAP
2580
24C0
7180
9200
A800
ENDCHAR
STARTCHAR w
ENCODING 119
SWIDTH 750 0
DWIDTH 8 0
BBX 8 5 0 0
BITMAP
248D
2589
3348
6B14
A290
ENDCHAR
STARTCHAR x
ENCODING 120
SWIDTH 467 0
DWIDTH 5 0
BBX 5 5 0 0
BITMAP
2580
3A00
2800
2C00
8A00
ENDCHAR
STARTCHAR y
ENCODING 121
SWIDTH 549 0
DWIDTH 6 0
BBX 6 8 0 -3
BITMAP
2490
25C0
7280
AA40
B700
0500
1800
2000
ENDCHAR
STARTCHAR z
ENCODING 122
SWIDTH 430 0
DWIDTH 4 0
BBX 5 5 0 0
BITMAP
2A40
0700
1800
6000
A900
ENDCHAR
STARTCHAR braceleft
ENCODING 123
SWIDTH 424 0
DWIDTH 4 0
BBX 6 11 0 -2
BITMAP
0090
0240
0300
0600
0900
2800
2400
2400
3000
6000
6000
ENDCHAR
STARTCHAR bar
ENCODING 124
SWIDTH 306 0
DWIDTH 3 0
BBX 1 11 1 -2
BITMAP
40
80
80
80
80
80
80
80
80
80
80
ENDCHAR
STARTCHAR braceright
ENCODING 125
SWIDTH 424 0
DWIDTH 4 0
BBX 6 11 -1 -2
BITMAP
0080
0090
00C0
0180
0240
0280
0A00
0C00
1800
2800
6000
ENDCHAR
STARTCHAR asciitilde
ENCODING 126
SWIDTH 624 0
DWIDTH 6 0
BBX 6 2 0 2
BITMAP
2E20
52D0
ENDCHAR
STARTCHAR nonbreakingspace
ENCODING 160
SWIDTH 293 0
DWIDTH 3 0
BBX 1 1 0 0
BITMAP
00
ENDCHAR
STARTCHAR exclamdown
ENCODING 161
SWIDTH 417 0
DWIDTH 4 0
BBX 4 8 0 -2
BITMAP
0A
05
08
24
30
60
90
50
ENDCHAR
STARTCHAR cent
ENCODING 162
SWIDTH 487 0
DWIDTH 5 0
BBX 4 8 1 0
BITMAP
06
09
66
D5
C0
C4
A4
40
ENDCHAR
STARTCHAR sterling
ENCODING 163
SWIDTH 665 0
DWIDTH 7 0
BBX 7 8 0 0
BITMAP
00A4
0188
0368
0720
1F80
0C00
AC00
A6E0
ENDCHAR
STARTCHAR currency
ENCODING 164
SWIDTH 572 0
DWIDTH 6 0
BBX 6 7 0 0
BITMAP
0400
0A90
18C0
24C0
3280
2A40
4040
ENDCHAR
STARTCHAR yen
ENCODING 165
SWIDTH 583 0
DWIDTH 6 0
BBX 7 8 0 0
BITMAP
741C
1834
0C90
0980
0740
1B40
2E40
0800
ENDCHAR
STARTCHAR brokenbar
ENCODING 166
SWIDTH 292 0
DWIDTH 3 0
BBX 1 11 1 -2
BITMAP
40
C0
C0
C0
80
00
40
C0
C0
C0
80
ENDCHAR
STARTCHAR section
ENCODING 167
SWIDTH 583 0
DWIDTH 6 0
BBX 6 11 0 -2
BITMAP
0290
0630
0A70
0B40
2B40
3180
35C0
1E40
4D00
C900
6400
ENDCHAR
STARTCHAR dieresis
ENCODING 168
SWIDTH 412 0
DWIDTH 4 0
BBX 4 2 0 6
BITMAP
67
11
ENDCHAR
STARTCHAR copyright
ENCODING 169
SWIDTH 871 0
DWIDTH 9 0
BBX 9 8 0 0
BITMAP
02A800
09A600
265640
233640
661200
261200
269800
0AA000
ENDCHAR
STARTCHAR ordfeminine
ENCODING 170
SWIDTH 564 0
DWIDTH 6 0
BBX 5 5 1 3
BITMAP
1A40
6340
9600
DA00
A600
ENDCHAR
STARTCHAR guillemotleft
ENCODING 171
SWIDTH 662 0
DWIDTH 7 0
BBX 5 4 1 1
BITMAP
1480
9600
D600
2240
ENDCHAR
STARTCHAR logicalnot
ENCODING 172
SWIDTH 729 0
DWIDTH 7 0
BBX 6 4 1 0
BITMAP
AA90
0050
0090
0040
ENDCHAR
STARTCHAR uni00AD
ENCODING 173
SWIDTH 833 0
DWIDTH 8 0
BBX 1 1 0 0
BITMAP
00
ENDCHAR
STARTCHAR registered
ENCODING 174
SWIDTH 742 0
DWIDTH 7 0
BBX 6 7 1 1
BITMAP
1A80
6A60
89A0
8E20
9620
9190
2A40
ENDCHAR
STARTCHAR macron
ENCODING 175
SWIDTH 392 0
DWIDTH 4 0
BBX 3 1 1 6
BITMAP
F8
ENDCHAR
STARTCHAR degree
ENCODING 176
SWIDTH 405 0
DWIDTH 4 0
BBX 4 4 1 4
BITMAP
68
99
9C
50
ENDCHAR
STARTCHAR plusminus
ENCODING 177
SWIDTH 617 0
DWIDTH 6 0
BBX 5 7 1 0
BITMAP
0400
1400
AE40
1400
1400
0000
AA40
ENDCHAR
STARTCHAR twosuperior
ENCODING 178
SWIDTH 458 0
DWIDTH 5 0
BBX 4 5 1 3
BITMAP
29
66
1D
60
A8
ENDCHAR
STARTCHAR threesuperior
ENCODING 179
SWIDTH 430 0
DWIDTH 4 0
BBX 4 5 1 3
BITMAP
29
1A
28
9C
A0
ENDCHAR
STARTCHAR acute
ENCODING 180
SWIDTH 322 0
DWIDTH 3 0
BBX 2 3 1 5
BITMAP
10
30
90
ENDCHAR
STARTCHAR mu
ENCODING 181
SWIDTH 618 0
DWIDTH 6 0
BBX 7 8 -1 -3
BITMAP
0218
0924
0C70
19A0
2E74
3000
6000
6000
ENDCHAR
STARTCHAR paragraph
ENCODING 182
SWIDTH 739 0
DWIDTH 7 0
BBX 9 9 0 -1
BITMAP
01AF40
07DA00
0FC900
0FCC00
029800
036400
173000
996000
644000
ENDCHAR
STARTCHAR periodcentered
ENCODING 183
SWIDTH 353 0
DWIDTH 4 0
BBX 2 2 1 2
BITMAP
A0
50
ENDCHAR
STARTCHAR cedilla
ENCODING 184
SWIDTH 301 0
DWIDTH 3 0
BBX 2 3 1 -2
BITMAP
40
50
C0
ENDCHAR
STARTCHAR onesuperior
ENCODING 185
SWIDTH 403 0
DWIDTH 4 0
BBX 3 5 1 3
BITMAP
1C
68
24
20
90
ENDCHAR
STARTCHAR ordmasculine
ENCODING 186
SWIDTH 498 0
DWIDTH 5 0
BBX 4 5 1 3
BITMAP
19
63
97
C9
64
ENDCHAR
STARTCHAR guillemotright
ENCODING 187
SWIDTH 665 0
DWIDTH 7 0
BBX 6 4 0 1
BITMAP
2580
0960
19A0
6240
ENDCHAR
STARTCHAR onequarter
ENCODING 188
SWIDTH 988 0
DWIDTH 10 0
BBX 8 8 1 0
BITMAP
2820
B860
2490
3264
6236
8966
186D
2014
ENDCHAR
STARTCHAR onehalf
ENCODING 189
SWIDTH 988 0
DWIDTH 10 0
BBX 9 8 1 0
BITMAP
182000
785000
648000
325A00
562640
490A00
182400
20BD00
ENDCHAR
STARTCHAR threequarters
ENCODING 190
SWIDTH 1007 0
DWIDTH 10 0
BBX 9 8 0 0
BITMAP
1A0600
264800
0A2500
092300
999640
658C80
020A80
050200
ENDCHAR
STARTCHAR questiondown
ENCODING 191
SWIDTH 516 0
DWIDTH 5 0
BBX 5 8 0 -2
BITMAP
0280
0100
0200
0D00
7400
9500
C900
6400
ENDCHAR
STARTCHAR Agrave
ENCODING 192
SWIDTH 615 0
DWIDTH 6 0
BBX 8 10 -1 0
BITMAP
0014
0018
001D
0059
019C
0228
0BBC
0830
2460
A074
ENDCHAR
STARTCHAR Aacute
ENCODING 193
SWIDTH 615 0
DWIDTH 6 0
BBX 8 10 -1 0
BITMAP
0002
0006
001D
0059
019C
0228
0BBC
0830
2460
A074
ENDCHAR
STARTCHAR Acircumflex
ENCODING 194
SWIDTH 615 0
DWIDTH 6 0
BBX 8 10 -1 0
BITMAP
0005
0026
001D
0059
019C
0228
0BBC
0830
2460
A074
ENDCHAR
STARTCHAR Atilde
ENCODING 195
SWIDTH 615 0
DWIDTH 6 0
BBX 9 10 -1 0
BITMAP
002840
001A00
001D00
005900
019C00
022800
0BBC00
083000
246000
A07400
ENDCHAR
STARTCHAR Adieresis
ENCODING 196
SWIDTH 615 0
DWIDTH 6 0
BBX 9 10 -1 0
BITMAP
001140
003240
001D00
005900
019C00
022800
0BBC00
083000
246000
A07400
ENDCHAR
STARTCHAR Aring
ENCODING 197
SWIDTH 615 0
DWIDTH 6 0
BBX 8 10 -1 0
BITMAP
000A
0026
001D
0059
019C
0228
0BBC
0830
2460
A074
ENDCHAR
STARTCHAR AE
ENCODING 198
SWIDTH 878 0
DWIDTH 9 0
BBX 11 8 -1 0
BITMAP
001EE4
006A14
018C70
024C00
0BFF40
0C1800
243480
601A40
ENDCHAR
STARTCHAR Ccedilla
ENCODING 199
SWIDTH 533 0
DWIDTH 5 0
BBX 6 10 0 -2
BITMAP
02A0
0930
2870
3090
7000
6000
6040
2A40
0800
2400
ENDCHAR
STARTCHAR Egrave
ENCODING 200
SWIDTH 509 0
DWIDTH 5 0
BBX 6 10 0 0
BITMAP
0100
0180
0690
1C60
24D0
2400
1E00
7400
A140
6A00
ENDCHAR
STARTCHAR Eacute
ENCODING 201
SWIDTH 509 0
DWIDTH 5 0
BBX 6 10 0 0
BITMAP
0020
0090
0690
1C60
24D0
2400
1E00
7400
A140
6A00
ENDCHAR
STARTCHAR Ecircumflex
ENCODING 202
SWIDTH 509 0
DWIDTH 5 0
BBX 6 10 0 0
BITMAP
0050
0260
0690
1C60
24D0
2400
1E00
7400
A140
6A00
ENDCHAR
STARTCHAR Edieresis
ENCODING 203
SWIDTH 509 0
DWIDTH 5 0
BBX 7 10 0 0
BITMAP
0110
0734
0690
1C60
24D0
2400
1E00
7400
A140
6A00
ENDCHAR
STARTCHAR Igrave
ENCODING 204
SWIDTH 327 0
DWIDTH 3 0
BBX 4 10 0 0
BITMAP
04
09
2D
09
0D
0C
18
24
60
80
ENDCHAR
STARTCHAR Iacute
ENCODING 205
SWIDTH 327 0
DWIDTH 3 0
BBX 5 10 0 0
BITMAP
0140
0240
2D00
0900
0D00
0C00
1800
2400
6000
8000
ENDCHAR
STARTCHAR Icircumflex
ENCODING 206
SWIDTH 327 0
DWIDTH 3 0
BBX 5 10 0 0
BITMAP
0200
1A40
2D00
0900
0D00
0C00
1800
2400
6000
8000
ENDCHAR
STARTCHAR Idieresis
ENCODING 207
SWIDTH 327 0
DWIDTH 3 0
BBX 5 10 0 0
BITMAP
1440
1980
2D00
0900
0D00
0C00
1800
2400
6000
8000
ENDCHAR
STARTCHAR Eth
ENCODING 208
SWIDTH 630 0
DWIDTH 6 0
BBX 7 8 0 0
BITMAP
2E90
1430
1C24
7E24
3070
6090
A280
6900
ENDCHAR
STARTCHAR Ntilde
ENCODING 209
SWIDTH 708 0
DWIDTH 7 0
BBX 8 10 0 0
BITMAP
0075
0059
0349
0B06
1709
234C
6258
52A0
91E0
8090
ENDCHAR
STARTCHAR Ograve
ENCODING 210
SWIDTH 655 0
DWIDTH 7 0
BBX 7 10 0 0
BITMAP
0040
0060
02A0
0A18
1818
3428
7034
6060
61C0
2A00
ENDCHAR
STARTCHAR Oacute
ENCODING 211
SWIDTH 655 0
DWIDTH 7 0
BBX 7 10 0 0
BITMAP
0008
0024
02A0
0A18
1818
3428
7034
6060
61C0
2A00
ENDCHAR
STARTCHAR Ocircumflex
ENCODING 212
SWIDTH 655 0
DWIDTH 7 0
BBX 7 10 0 0
BITMAP
0024
00A8
02A0
0A18
1818
3428
7034
6060
61C0
2A00
ENDCHAR
STARTCHAR Otilde
ENCODING 213
SWIDTH 655 0
DWIDTH 7 0
BBX 8 10 0 0
BITMAP
00A5
0128
02A0
0A18
1818
3428
7034
6060
61C0
2A00
ENDCHAR
STARTCHAR Odieresis
ENCODING 214
SWIDTH 655 0
DWIDTH 7 0
BBX 8 10 0 0
BITMAP
0044
01CD
02A0
0A18
1818
3428
7034
6060
61C0
2A00
ENDCHAR
STARTCHAR multiply
ENCODING 215
SWIDTH 573 0
DWIDTH 6 0
BBX 4 4 1 1
BITMAP
82
29
28
92
ENDCHAR
STARTCHAR Oslash
ENCODING 216
SWIDTH 655 0
DWIDTH 7 0
BBX 6 10 1 -1
BITMAP
0010
06E0
19B0
3270
A570
D8A0
D5C0
E240
A900
8000
ENDCHAR
STARTCHAR Ugrave
ENCODING 217
SWIDTH 624 0
DWIDTH 6 0
BBX 7 10 0 0
BITMAP
0040
0080
0D08
0D28
1830
24A0
30D0
62D0
95C0
B4A0
ENDCHAR
STARTCHAR Uacute
ENCODING 218
SWIDTH 624 0
DWIDTH 6 0
BBX 7 10 0 0
BITMAP
0020
0060
0D08
0D28
1830
24A0
30D0
62D0
95C0
B4A0
ENDCHAR
STARTCHAR Ucircumflex
ENCODING 219
SWIDTH 624 0
DWIDTH 6 0
BBX 7 10 0 0
BITMAP
0060
01A0
0D08
0D28
1830
24A0
30D0
62D0
95C0
B4A0
ENDCHAR
STARTCHAR Udieresis
ENCODING 220
SWIDTH 624 0
DWIDTH 6 0
BBX 7 10 0 0
BITMAP
0114
0268
0D08
0D28
1830
24A0
30D0
62D0
95C0
B4A0
ENDCHAR
STARTCHAR Yacute
ENCODING 221
SWIDTH 580 0
DWIDTH 6 0
BBX 7 13 0 -3
BITMAP
0020
0060
0D18
0C28
1870
24A0
31D0
A2C0
9680
B640
0600
0C00
6400
ENDCHAR
STARTCHAR Thorn
ENCODING 222
SWIDTH 527 0
DWIDTH 5 0
BBX 7 8 -1 0
BITMAP
0B00
0300
0790
0A24
0D34
1ED0
2400
6000
ENDCHAR
STARTCHAR germandbls
ENCODING 223
SWIDTH 520 0
DWIDTH 5 0
BBX 7 10 -1 -2
BITMAP
01A0
0324
0630
0990
0D80
18D0
2960
3690
7000
5000
ENDCHAR
STARTCHAR agrave
ENCODING 224
SWIDTH 541 0
DWIDTH 5 0
BBX 6 8 0 0
BITMAP
0300
0300
0100
0A90
31C0
6240
9700
7680
ENDCHAR
STARTCHAR aacute
ENCODING 225
SWIDTH 541 0
DWIDTH 5 0
BBX 6 8 0 0
BITMAP
0080
0240
0100
0A90
31C0
6240
9700
7680
ENDCHAR
STARTCHAR acircumflex
ENCODING 226
SWIDTH 541 0
DWIDTH 5 0
BBX 6 8 0 0
BITMAP
0040
06C0
0440
0A90
31C0
6240
9700
7680
ENDCHAR
STARTCHAR atilde
ENCODING 227
SWIDTH 541 0
DWIDTH 5 0
BBX 6 8 0 0
BITMAP
0710
0590
0000
0A90
31C0
6240
9700
7680
ENDCHAR
STARTCHAR adieresis
ENCODING 228
SWIDTH 541 0
DWIDTH 5 0
BBX 6 8 0 0
BITMAP
0DA0
0450
0000
0A90
31C0
6240
9700
7680
ENDCHAR
STARTCHAR aring
ENCODING 229
SWIDTH 541 0
DWIDTH 5 0
BBX 6 8 0 0
BITMAP
0280
0580
0240
0A90
31C0
6240
9700
7680
ENDCHAR
STARTCHAR ae
ENCODING 230
SWIDTH 769 0
DWIDTH 8 0
BBX 8 5 0 0
BITMAP
0AA9
31C9
62A8
9784
79A8
ENDCHAR
STARTCHAR ccedilla
ENCODING 231
SWIDTH 465 0
DWIDTH 5 0
BBX 5 7 0 -2
BITMAP
1A40
3240
A100
9100
6900
1400
3000
ENDCHAR
STARTCHAR egrave
ENCODING 232
SWIDTH 471 0
DWIDTH 5 0
BBX 5 8 0 0
BITMAP
0600
0600
0100
0A40
3640
7A00
A100
7A00
ENDCHAR
STARTCHAR eacute
ENCODING 233
SWIDTH 471 0
DWIDTH 5 0
BBX 5 8 0 0
BITMAP
0140
0340
0400
0A40
3640
7A00
A100
7A00
ENDCHAR
STARTCHAR ecircumflex
ENCODING 234
SWIDTH 471 0
DWIDTH 5 0
BBX 5 8 0 0
BITMAP
0140
0680
1440
0A40
3640
7A00
A100
7A00
ENDCHAR
STARTCHAR edieresis
ENCODING 235
SWIDTH 471 0
DWIDTH 5 0
BBX 6 8 0 0
BITMAP
1CD0
0440
0000
0A40
2640
6400
A100
7900
ENDCHAR
STARTCHAR igrave
ENCODING 236
SWIDTH 286 0
DWIDTH 3 0
BBX 3 8 0 0
BITMAP
14
18
04
24
24
60
90
B0
ENDCHAR
STARTCHAR iacute
ENCODING 237
SWIDTH 286 0
DWIDTH 3 0
BBX 4 8 0 0
BITMAP
05
0C
10
24
24
60
90
B0
ENDCHAR
STARTCHAR icircumflex
ENCODING 238
SWIDTH 286 0
DWIDTH 3 0
BBX 4 8 0 0
BITMAP
05
1A
51
24
24
60
90
B0
ENDCHAR
STARTCHAR idieresis
ENCODING 239
SWIDTH 286 0
DWIDTH 3 0
BBX 5 8 0 0
BITMAP
7340
1100
0000
2400
2400
6000
9000
B000
ENDCHAR
STARTCHAR eth
ENCODING 240
SWIDTH 524 0
DWIDTH 5 0
BBX 6 8 0 0
BITMAP
0090
01E0
0190
0AD0
35C0
6280
9300
7900
ENDCHAR
STARTCHAR ntilde
ENCODING 241
SWIDTH 561 0
DWIDTH 6 0
BBX 6 8 0 0
BITMAP
0710
0590
0000
26C0
29C0
3580
A240
8280
ENDCHAR
STARTCHAR ograve
ENCODING 242
SWIDTH 514 0
DWIDTH 5 0
BBX 5 8 0 0
BITMAP
0300
0300
0100
1A40
3580
6280
9340
6900
ENDCHAR
STARTCHAR oacute
ENCODING 243
SWIDTH 514 0
DWIDTH 5 0
BBX 5 8 0 0
BITMAP
0080
0280
0100
1A40
3580
6280
9340
6900
ENDCHAR
STARTCHAR ocircumflex
ENCODING 244
SWIDTH 514 0
DWIDTH 5 0
BBX 6 8 0 0
BITMAP
0040
06C0
0450
1A40
3580
6280
9340
6900
ENDCHAR
STARTCHAR otilde
ENCODING 245
SWIDTH 514 0
DWIDTH 5 0
BBX 6 8 0 0
BITMAP
0750
0590
0000
1A40
3580
6280
9340
6900
ENDCHAR
STARTCHAR odieresis
ENCODING 246
SWIDTH 514 0
DWIDTH 5 0
BBX 6 8 0 0
BITMAP
09A0
0450
0000
1A40
3580
6280
9340
6900
ENDCHAR
STARTCHAR divide
ENCODING 247
SWIDTH 617 0
DWIDTH 6 0
BBX 5 5 1 1
BITMAP
0800
0400
AA40
0000
1800
ENDCHAR
STARTCHAR oslash
ENCODING 248
SWIDTH 514 0
DWIDTH 5 0
BBX 5 7 0 -1
BITMAP
0080
1A80
3680
6680
A740
7900
5000
ENDCHAR
STARTCHAR ugrave
ENCODING 249
SWIDTH 553 0
DWIDTH 6 0
BBX 6 8 0 0
BITMAP
0240
0240
0040
2490
25C0
7380
9A40
A680
ENDCHAR
STARTCHAR uacute
ENCODING 250
SWIDTH 553 0
DWIDTH 6 0
BBX 6 8 0 0
BITMAP
0080
0180
0100
2490
25C0
7380
9A40
A680
ENDCHAR
STARTCHAR ucircumflex
ENCODING 251
SWIDTH 553 0
DWIDTH 6 0
BBX 6 8 0 0
BITMAP
0040
0290
0410
2490
25C0
7380
9A40
A680
ENDCHAR
STARTCHAR udieresis
ENCODING 252
SWIDTH 553 0
DWIDTH 6 0
BBX 6 8 0 0
BITMAP
0A70
0510
0000
2490
25C0
7380
9A40
A680
ENDCHAR
STARTCHAR yacute
ENCODING 253
SWIDTH 549 0
DWIDTH 6 0
BBX 6 11 0 -3
BITMAP
0080
0280
0100
2490
25C0
7280
AA40
B700
0500
1800
2000
ENDCHAR
STARTCHAR thorn
ENCODING 254
SWIDTH 552 0
DWIDTH 6 0
BBX 6 11 -1 -3
BITMAP
0240
0240
0300
06A0
0A30
0C30
1890
2A40
3000
6000
9000
ENDCHAR
STARTCHAR ydieresis
ENCODING 255
SWIDTH 549 0
DWIDTH 6 0
BBX 6 11 0 -3
BITMAP
09A0
0450
0000
2490
25C0
7280
AA40
B700
0500
1800
2000
ENDCHAR
STARTCHAR Amacron
ENCODING 256
SWIDTH 615 0
DWIDTH 6 0
BBX 8 9 -1 0
BITMAP
002E
001D
0059
019C
0228
0BBC
0830
2460
A074
ENDCHAR
STARTCHAR amacron
ENCODING 257
SWIDTH 543 0
DWIDTH 5 0
BBX 6 7 0 0
BITMAP
0BD0
0000
0A90
35C0
6240
9740
7680
ENDCHAR
STARTCHAR Abreve
ENCODING 258
SWIDTH 615 0
DWIDTH 6 0
BBX 9 10 -1 0
BITMAP
001040
001E00
001D00
005900
019C00
022800
0BBC00
083000
246000
A07400
ENDCHAR
STARTCHAR abreve
ENCODING 259
SWIDTH 543 0
DWIDTH 5 0
BBX 6 8 0 0
BITMAP
0550
0680
0000
0A90
35C0
6240
9740
7680
ENDCHAR
STARTCHAR Aogonek
ENCODING 260
SWIDTH 615 0
DWIDTH 6 0
BBX 8 10 -1 -2
BITMAP
001D
0059
019C
0228
0BBC
0830
2460
A074
0050
0090
ENDCHAR
STARTCHAR aogonek
ENCODING 261
SWIDTH 541 0
DWIDTH 5 0
BBX 6 7 0 -2
BITMAP
0A90
31C0
6240
9700
7680
0200
0600
ENDCHAR
STARTCHAR Cacute
ENCODING 262
SWIDTH 533 0
DWIDTH 5 0
BBX 7 10 0 0
BITMAP
0014
0024
02A0
0D30
28A0
3080
6000
6000
6040
2A40
ENDCHAR
STARTCHAR cacute
ENCODING 263
SWIDTH 468 0
DWIDTH 5 0
BBX 6 8 0 0
BITMAP
0090
00C0
0100
1A40
3640
6100
A100
7900
ENDCHAR
STARTCHAR Ccircumflex
ENCODING 264
SWIDTH 533 0
DWIDTH 5 0
BBX 7 10 0 0
BITMAP
0020
00A8
02A0
0D30
28A0
3080
6000
6000
6040
2A40
ENDCHAR
STARTCHAR ccircumflex
ENCODING 265
SWIDTH 468 0
DWIDTH 5 0
BBX 5 8 0 0
BITMAP
0040
06C0
0440
1A40
3640
6100
A100
7900
ENDCHAR
STARTCHAR Cdotaccent
ENCODING 266
SWIDTH 533 0
DWIDTH 5 0
BBX 6 10 0 0
BITMAP
0050
00A0
02A0
0D30
28A0
3080
6000
6000
6040
2A40
ENDCHAR
STARTCHAR cdotaccent
ENCODING 267
SWIDTH 468 0
DWIDTH 5 0
BBX 5 8 0 0
BITMAP
0280
0100
0000
1A40
3640
6100
A100
7900
ENDCHAR
STARTCHAR Ccaron
ENCODING 268
SWIDTH 533 0
DWIDTH 5 0
BBX 7 10 0 0
BITMAP
0044
00A4
02A0
0D30
28A0
3080
6000
6000
6040
2A40
ENDCHAR
STARTCHAR ccaron
ENCODING 269
SWIDTH 468 0
DWIDTH 5 0
BBX 6 8 0 0
BITMAP
0620
0390
0000
1A40
3640
6100
A100
7900
ENDCHAR
STARTCHAR Dcaron
ENCODING 270
SWIDTH 630 0
DWIDTH 6 0
BBX 7 10 0 0
BITMAP
0144
0090
2E90
1434
0D24
2824
3430
7090
6280
6900
ENDCHAR
STARTCHAR dcaron
ENCODING 271
SWIDTH 557 0
DWIDTH 6 0
BBX 8 8 0 0
BITMAP
0027
0032
0064
0AD0
24C0
6280
A740
79C0
ENDCHAR
STARTCHAR Dcroat
ENCODING 272
SWIDTH 630 0
DWIDTH 6 0
BBX 7 8 0 0
BITMAP
2E90
1430
1C24
7E24
3470
6090
A280
6900
ENDCHAR
STARTCHAR dcroat
ENCODING 273
SWIDTH 557 0
DWIDTH 6 0
BBX 7 8 0 0
BITMAP
0024
01B4
0060
0AD0
24C0
6280
A740
79C0
ENDCHAR
STARTCHAR Emacron
ENCODING 274
SWIDTH 509 0
DWIDTH 5 0
BBX 6 9 0 0
BITMAP
02E0
0690
1C60
24D0
2400
1E00
7400
A140
6A00
ENDCHAR
STARTCHAR emacron
ENCODING 275
SWIDTH 471 0
DWIDTH 5 0
BBX 5 7 0 0
BITMAP
1F80
0000
0A40
3640
7A00
A100
7A00
ENDCHAR
STARTCHAR Ebreve
ENCODING 276
SWIDTH 509 0
DWIDTH 5 0
BBX 6 10 0 0
BITMAP
0110
02A0
0690
1C60
24D0
2400
1E00
7400
A140
6A00
ENDCHAR
STARTCHAR ebreve
ENCODING 277
SWIDTH 471 0
DWIDTH 5 0
BBX 5 8 0 0
BITMAP
0880
0A40
0000
0A40
3640
7A00
A100
7A00
ENDCHAR
STARTCHAR Edotaccent
ENCODING 278
SWIDTH 509 0
DWIDTH 5 0
BBX 6 10 0 0
BITMAP
0040
0180
0690
1C60
24D0
2400
1E00
7400
A140
6A00
ENDCHAR
STARTCHAR edotaccent
ENCODING 279
SWIDTH 471 0
DWIDTH 5 0
BBX 5 8 0 0
BITMAP
0300
0100
0000
0A40
3640
7A00
A100
7A00
ENDCHAR
STARTCHAR Eogonek
ENCODING 280
SWIDTH 509 0
DWIDTH 5 0
BBX 6 10 0 -2
BITMAP
0690
1C60
24D0
2400
1E00
7400
A140
6900
1400
2400
ENDCHAR
STARTCHAR eogonek
ENCODING 281
SWIDTH 471 0
DWIDTH 5 0
BBX 5 7 0 -2
BITMAP
0A40
3640
7A00
A100
7900
1400
2800
ENDCHAR
STARTCHAR Ecaron
ENCODING 282
SWIDTH 509 0
DWIDTH 5 0
BBX 6 10 0 0
BITMAP
0110
0190
0690
1C60
24D0
2400
1E00
7400
A140
6A00
ENDCHAR
STARTCHAR ecaron
ENCODING 283
SWIDTH 471 0
DWIDTH 5 0
BBX 6 8 0 0
BITMAP
0950
0680
0000
0A40
3640
7A00
A100
7A00
ENDCHAR
STARTCHAR Gcircumflex
ENCODING 284
SWIDTH 598 0
DWIDTH 6 0
BBX 7 10 0 0
BITMAP
0020
01A8
02A0
0920
2870
34D0
7000
62E0
6180
2A00
ENDCHAR
STARTCHAR gcircumflex
ENCODING 285
SWIDTH 526 0
DWIDTH 5 0
BBX 6 11 0 -3
BITMAP
0040
06C0
0440
0A90
31C0
6280
9740
7B00
0600
1800
2000
ENDCHAR
STARTCHAR Gbreve
ENCODING 286
SWIDTH 598 0
DWIDTH 6 0
BBX 7 10 0 0
BITMAP
0044
00A4
02A0
0920
2870
34D0
7000
62E0
6180
2A00
ENDCHAR
STARTCHAR gbreve
ENCODING 287
SWIDTH 526 0
DWIDTH 5 0
BBX 6 11 0 -3
BITMAP
0510
0680
0000
0A90
31C0
6280
9740
7B00
0600
1800
2000
ENDCHAR
STARTCHAR Gdotaccent
ENCODING 288
SWIDTH 598 0
DWIDTH 6 0
BBX 6 10 0 0
BITMAP
0050
0090
02A0
0920
2870
34D0
7000
62E0
6180
2A00
ENDCHAR
STARTCHAR gdotaccent
ENCODING 289
SWIDTH 526 0
DWIDTH 5 0
BBX 6 11 0 -3
BITMAP
0280
0100
0000
0A90
31C0
6280
9740
7B00
0600
1800
2000
ENDCHAR
STARTCHAR Gcommaaccent
ENCODING 290
SWIDTH 598 0
DWIDTH 6 0
BBX 6 11 0 -3
BITMAP
02A0
0920
2870
34D0
7000
62E0
6180
2A00
1000
2400
2000
ENDCHAR
STARTCHAR gcommaaccent
ENCODING 291
SWIDTH 526 0
DWIDTH 5 0
BBX 6 11 0 -3
BITMAP
0180
0240
0000
0A90
31C0
6280
9740
7B00
0600
1800
2000
ENDCHAR
STARTCHAR Hcircumflex
ENCODING 292
SWIDTH 668 0
DWIDTH 7 0
BBX 8 10 -1 0
BITMAP
0014
00A8
0B43
0347
0306
0709
0D08
0C24
2830
6028
ENDCHAR
STARTCHAR hcircumflex
ENCODING 293
SWIDTH 555 0
DWIDTH 6 0
BBX 5 10 0 0
BITMAP
0700
2640
0800
0C00
1C00
2AC0
39C0
7680
A340
C280
ENDCHAR
STARTCHAR Hbar
ENCODING 294
SWIDTH 668 0
DWIDTH 7 0
BBX 9 8 -1 0
BITMAP
0B4300
024700
0BAF40
070900
0A5D00
0D1800
182400
602800
ENDCHAR
STARTCHAR hbar
ENCODING 295
SWIDTH 555 0
DWIDTH 6 0
BBX 5 8 0 0
BITMAP
0900
1E40
0C00
1AC0
29C0
3680
A340
8280
ENDCHAR
STARTCHAR Itilde
ENCODING 296
SWIDTH 327 0
DWIDTH 3 0
BBX 5 10 0 0
BITMAP
1D40
1240
2D00
0900
0D00
0C00
1800
2400
6000
8000
ENDCHAR
STARTCHAR itilde
ENCODING 297
SWIDTH 286 0
DWIDTH 3 0
BBX 5 8 0 0
BITMAP
2940
4A00
0000
2400
2400
6000
9000
B000
ENDCHAR
STARTCHAR Imacron
ENCODING 298
SWIDTH 327 0
DWIDTH 3 0
BBX 5 9 0 0
BITMAP
1F80
2D00
0900
0D00
0C00
1800
2400
6000
8000
ENDCHAR
STARTCHAR imacron
ENCODING 299
SWIDTH 286 0
DWIDTH 3 0
BBX 4 7 0 0
BITMAP
7E
00
24
24
60
90
B0
ENDCHAR
STARTCHAR Ibreve
ENCODING 300
SWIDTH 327 0
DWIDTH 3 0
BBX 5 10 0 0
BITMAP
0440
0A40
2D00
0900
0D00
0C00
1800
2400
6000
8000
ENDCHAR
STARTCHAR ibreve
ENCODING 301
SWIDTH 286 0
DWIDTH 3 0
BBX 4 8 0 0
BITMAP
22
29
00
24
24
60
90
B0
ENDCHAR
STARTCHAR Iogonek
ENCODING 302
SWIDTH 327 0
DWIDTH 3 0
BBX 6 10 -2 -2
BITMAP
02D0
0090
00D0
01C0
0280
0300
0A00
1800
2000
6400
ENDCHAR
STARTCHAR iogonek
ENCODING 303
SWIDTH 297 0
DWIDTH 3 0
BBX 4 11 0 -3
BITMAP
0D
04
00
28
24
30
60
A0
60
80
90
ENDCHAR
STARTCHAR Idotaccent
ENCODING 304
SWIDTH 327 0
DWIDTH 3 0
BBX 4 10 0 0
BITMAP
05
09
2D
09
0D
0C
18
24
60
80
ENDCHAR
STARTCHAR dotlessi
ENCODING 305
SWIDTH 286 0
DWIDTH 3 0
BBX 3 5 0 0
BITMAP
24
24
60
90
B0
ENDCHAR
STARTCHAR IJ
ENCODING 306
SWIDTH 720 0
DWIDTH 7 0
BBX 8 11 0 -3
BITMAP
2D7D
0989
0D0D
0C1C
1828
2434
6070
8090
01C0
0340
1900
ENDCHAR
STARTCHAR ij
ENCODING 307
SWIDTH 567 0
DWIDTH 6 0
BBX 6 11 0 -3
BITMAP
0CA0
0450
0000
24D0
24C0
60C0
9180
B240
0300
0900
2400
ENDCHAR
STARTCHAR Jcircumflex
ENCODING 308
SWIDTH 393 0
DWIDTH 4 0
BBX 7 13 -2 -3
BITMAP
0014
00A8
02F0
0630
0070
0060
0090
01C0
0280
0340
0A00
1C00
6000
ENDCHAR
STARTCHAR jcircumflex
ENCODING 309
SWIDTH 282 0
DWIDTH 3 0
BBX 6 11 -2 -3
BITMAP
0040
0290
0510
0240
0240
0300
0600
0900
0C00
2400
6000
ENDCHAR
STARTCHAR Kcommaaccent
ENCODING 310
SWIDTH 616 0
DWIDTH 6 0
BBX 8 11 -1 -3
BITMAP
0F09
0309
0718
0660
0A80
1DC0
28A0
6028
0500
0A00
0800
ENDCHAR
STARTCHAR kcommaaccent
ENCODING 311
SWIDTH 497 0
DWIDTH 5 0
BBX 5 11 0 -3
BITMAP
0400
0900
0C00
19C0
2680
3D00
AD00
8740
1000
3000
5000
ENDCHAR
STARTCHAR kgreenlandic
ENCODING 312
SWIDTH 497 0
DWIDTH 5 0
BBX 5 5 0 0
BITMAP
24C0
2680
3D00
AD00
8740
ENDCHAR
STARTCHAR Lacute
ENCODING 313
SWIDTH 517 0
DWIDTH 5 0
BBX 6 10 0 0
BITMAP
0020
0060
0290
0960
1C90
2A80
3400
7000
9500
EA80
ENDCHAR
STARTCHAR lacute
ENCODING 314
SWIDTH 279 0
DWIDTH 3 0
BBX 5 10 0 0
BITMAP
0140
0200
0800
0C00
1800
2400
3000
6000
9000
A000
ENDCHAR
STARTCHAR Lcommaaccent
ENCODING 315
SWIDTH 517 0
DWIDTH 5 0
BBX 6 11 0 -3
BITMAP
0290
0960
1C90
2A80
3400
7000
9500
EA80
1000
6000
5000
ENDCHAR
STARTCHAR lcommaaccent
ENCODING 316
SWIDTH 279 0
DWIDTH 3 0
BBX 3 11 0 -3
BITMAP
04
0C
18
24
30
60
90
A0
40
90
80
ENDCHAR
STARTCHAR Lcaron
ENCODING 317
SWIDTH 517 0
DWIDTH 5 0
BBX 8 10 0 0
BITMAP
0005
0009
0298
0960
1C90
2A80
3400
7000
9500
EA80
ENDCHAR
STARTCHAR lcaron
ENCODING 318
SWIDTH 467 0
DWIDTH 5 0
BBX 6 8 0 0
BITMAP
0890
0C90
1840
2400
3000
6000
9000
B000
ENDCHAR
STARTCHAR Ldot
ENCODING 319
SWIDTH 668 0
DWIDTH 7 0
BBX 7 8 0 0
BITMAP
0290
0960
1C90
2A80
3428
7004
9500
EA80
ENDCHAR
STARTCHAR ldot
ENCODING 320
SWIDTH 489 0
DWIDTH 5 0
BBX 5 8 0 0
BITMAP
0800
0C00
1800
2400
3280
6140
9000
B000
ENDCHAR
STARTCHAR Lslash
ENCODING 321
SWIDTH 517 0
DWIDTH 5 0
BBX 6 8 0 0
BITMAP
0290
0960
0C90
2980
7D00
A000
9500
EA80
ENDCHAR
STARTCHAR lslash
ENCODING 322
SWIDTH 279 0
DWIDTH 3 0
BBX 5 9 0 0
BITMAP
0400
1E40
0C00
1800
2400
3000
6000
9000
A000
ENDCHAR
STARTCHAR Nacute
ENCODING 323
SWIDTH 708 0
DWIDTH 7 0
BBX 8 10 0 0
BITMAP
0005
0008
0349
0B06
1709
234C
6258
52A0
91E0
8090
ENDCHAR
STARTCHAR nacute
ENCODING 324
SWIDTH 561 0
DWIDTH 6 0
BBX 5 8 0 0
BITMAP
0080
0180
0100
26C0
29C0
3580
A240
8280
ENDCHAR
STARTCHAR Ncommaaccent
ENCODING 325
SWIDTH 708 0
DWIDTH 7 0
BBX 8 11 0 -3
BITMAP
0349
0B06
1709
234C
6258
52A0
91E0
8090
0500
0600
0800
ENDCHAR
STARTCHAR ncommaaccent
ENCODING 326
SWIDTH 561 0
DWIDTH 6 0
BBX 5 8 0 -3
BITMAP
26C0
29C0
3580
A240
8280
1000
2400
2000
ENDCHAR
STARTCHAR Ncaron
ENCODING 327
SWIDTH 708 0
DWIDTH 7 0
BBX 8 10 0 0
BITMAP
0011
0029
0349
0B06
1709
234C
6258
52A0
91E0
8090
ENDCHAR
STARTCHAR ncaron
ENCODING 328
SWIDTH 561 0
DWIDTH 6 0
BBX 6 8 0 0
BITMAP
0620
0390
0000
26C0
29C0
3580
A240
8280
ENDCHAR
STARTCHAR Eng
ENCODING 330
SWIDTH 698 0
DWIDTH 7 0
BBX 8 11 0 -3
BITMAP
0709
0B0A
1709
330D
634C
9254
81E0
80D0
0180
0300
1800
ENDCHAR
STARTCHAR eng
ENCODING 331
SWIDTH 561 0
DWIDTH 6 0
BBX 5 8 0 -3
BITMAP
26C0
29C0
34C0
A180
8300
0600
0C00
2400
ENDCHAR
STARTCHAR Omacron
ENCODING 332
SWIDTH 655 0
DWIDTH 7 0
BBX 7 9 0 0
BITMAP
01B8
02A0
0A18
1818
3428
7034
6060
61C0
2A00
ENDCHAR
STARTCHAR omacron
ENCODING 333
SWIDTH 514 0
DWIDTH 5 0
BBX 6 7 0 0
BITMAP
0BD0
0000
1A40
3580
6280
9340
6900
ENDCHAR
STARTCHAR Obreve
ENCODING 334
SWIDTH 655 0
DWIDTH 7 0
BBX 7 10 0 0
BITMAP
0044
00A4
02A0
0A18
1818
3428
7034
6060
61C0
2A00
ENDCHAR
STARTCHAR obreve
ENCODING 335
SWIDTH 514 0
DWIDTH 5 0
BBX 6 8 0 0
BITMAP
0510
0280
0000
1A40
3580
6280
9340
6900
ENDCHAR
STARTCHAR Ohungarumlaut
ENCODING 336
SWIDTH 655 0
DWIDTH 7 0
BBX 8 10 0 0
BITMAP
0055
0098
02A0
0A18
1818
3428
7034
6060
61C0
2A00
ENDCHAR
STARTCHAR ohungarumlaut
ENCODING 337
SWIDTH 514 0
DWIDTH 5 0
BBX 6 8 0 0
BITMAP
0220
0690
0440
1A40
3580
6280
9340
6900
ENDCHAR
STARTCHAR OE
ENCODING 338
SWIDTH 900 0
DWIDTH 9 0
BBX 10 8 1 0
BITMAP
06AA80
1C3490
346280
606000
903800
D0A000
82C100
6AA900
ENDCHAR
STARTCHAR oe
ENCODING 339
SWIDTH 777 0
DWIDTH 8 0
BBX 8 5 0 0
BITMAP
0AAA
24D6
71E9
6280
29A8
ENDCHAR
STARTCHAR Racute
ENCODING 340
SWIDTH 623 0
DWIDTH 6 0
BBX 6 10 0 0
BITMAP
0020
0090
1A90
1830
0D30
18A0
2F40
3700
A280
80E0
ENDCHAR
STARTCHAR racute
ENCODING 341
SWIDTH 407 0
DWIDTH 4 0
BBX 5 8 0 0
BITMAP
0140
0240
0500
3640
2900
3400
6000
9000
ENDCHAR
STARTCHAR Rcommaaccent
ENCODING 342
SWIDTH 623 0
DWIDTH 6 0
BBX 6 11 0 -3
BITMAP
1A90
1830
0D30
18A0
2F40
3700
A280
80E0
1000
2400
2000
ENDCHAR
STARTCHAR rcommaaccent
ENCODING 343
SWIDTH 407 0
DWIDTH 4 0
BBX 6 8 -1 -3
BITMAP
0D90
0E40
0D00
1800
2400
1000
3000
5000
ENDCHAR
STARTCHAR Rcaron
ENCODING 344
SWIDTH 623 0
DWIDTH 6 0
BBX 6 10 0 0
BITMAP
0110
0190
1A90
1830
0D30
18A0
2F40
3700
A280
80E0
ENDCHAR
STARTCHAR rcaron
ENCODING 345
SWIDTH 407 0
DWIDTH 4 0
BBX 6 8 0 0
BITMAP
0850
0A40
0000
3640
2900
3400
6000
9000
ENDCHAR
STARTCHAR Sacute
ENCODING 346
SWIDTH 474 0
DWIDTH 5 0
BBX 6 10 0 0
BITMAP
0020
0090
0A80
1850
2490
2580
1C00
0A00
9600
6800
ENDCHAR
STARTCHAR sacute
ENCODING 347
SWIDTH 423 0
DWIDTH 4 0
BBX 5 8 0 0
BITMAP
0180
0240
0500
1A00
3200
2800
4C00
A800
ENDCHAR
STARTCHAR Scircumflex
ENCODING 348
SWIDTH 474 0
DWIDTH 5 0
BBX 6 10 0 0
BITMAP
0050
0260
0A80
1850
2490
2580
1C00
0A00
9600
6800
ENDCHAR
STARTCHAR scircumflex
ENCODING 349
SWIDTH 423 0
DWIDTH 4 0
BBX 5 8 0 0
BITMAP
0140
0680
1440
1A00
3200
2800
4C00
A800
ENDCHAR
STARTCHAR Scedilla
ENCODING 350
SWIDTH 474 0
DWIDTH 5 0
BBX 6 10 0 -2
BITMAP
0A80
2850
34D0
2840
1D00
4A00
9900
2400
2000
6000
ENDCHAR
STARTCHAR scedilla
ENCODING 351
SWIDTH 423 0
DWIDTH 4 0
BBX 4 7 0 -2
BITMAP
1A
32
28
8C
68
20
A0
ENDCHAR
STARTCHAR Scaron
ENCODING 352
SWIDTH 474 0
DWIDTH 5 0
BBX 6 10 0 0
BITMAP
0110
0190
0A80
1850
2490
2580
1C00
0A00
9600
6800
ENDCHAR
STARTCHAR scaron
ENCODING 353
SWIDTH 423 0
DWIDTH 4 0
BBX 6 8 0 0
BITMAP
0950
0680
0000
1A00
3200
2800
4C00
A800
ENDCHAR
STARTCHAR Tcommaaccent
ENCODING 354
SWIDTH 471 0
DWIDTH 5 0
BBX 7 11 0 -3
BITMAP
2E04
63A0
1700
0600
0900
0C00
1800
2000
1000
3000
5000
ENDCHAR
STARTCHAR tcommaaccent
ENCODING 355
SWIDTH 358 0
DWIDTH 4 0
BBX 4 9 0 -3
BITMAP
0C
39
30
60
60
78
50
60
80
ENDCHAR
STARTCHAR Tcaron
ENCODING 356
SWIDTH 471 0
DWIDTH 5 0
BBX 7 10 0 0
BITMAP
0144
0090
2E04
63A0
1700
0600
0900
0C00
1800
2000
ENDCHAR
STARTCHAR tcaron
ENCODING 357
SWIDTH 497 0
DWIDTH 5 0
BBX 5 8 1 0
BITMAP
00C0
1480
2500
B800
9000
C000
C000
A400
ENDCHAR
STARTCHAR Tbar
ENCODING 358
SWIDTH 471 0
DWIDTH 5 0
BBX 7 8 0 0
BITMAP
2E04
63A0
1300
0600
2F00
0C00
1800
2000
ENDCHAR
STARTCHAR tbar
ENCODING 359
SWIDTH 358 0
DWIDTH 4 0
BBX 4 7 0 0
BITMAP
04
1C
39
34
79
60
78
ENDCHAR
STARTCHAR Utilde
ENCODING 360
SWIDTH 624 0
DWIDTH 6 0
BBX 7 10 0 0
BITMAP
01C4
0164
0D08
0D28
1830
24A0
30D0
62D0
95C0
B4A0
ENDCHAR
STARTCHAR utilde
ENCODING 361
SWIDTH 553 0
DWIDTH 6 0
BBX 6 8 0 0
BITMAP
0750
0490
0000
2490
25C0
7380
9A40
A680
ENDCHAR
STARTCHAR Umacron
ENCODING 362
SWIDTH 624 0
DWIDTH 6 0
BBX 7 9 0 0
BITMAP
02F4
0D08
0D28
1830
24A0
30D0
62D0
95C0
B4A0
ENDCHAR
STARTCHAR umacron
ENCODING 363
SWIDTH 553 0
DWIDTH 6 0
BBX 6 7 0 0
BITMAP
07E0
0000
2490
25C0
7380
9A40
A680
ENDCHAR
STARTCHAR Ubreve
ENCODING 364
SWIDTH 624 0
DWIDTH 6 0
BBX 7 10 0 0
BITMAP
0044
01E0
0D08
0D28
1830
24A0
30D0
62D0
95C0
B4A0
ENDCHAR
STARTCHAR ubreve
ENCODING 365
SWIDTH 553 0
DWIDTH 6 0
BBX 6 8 0 0
BITMAP
0220
0290
0000
2490
25C0
7380
9A40
A680
ENDCHAR
STARTCHAR Uring
ENCODING 366
SWIDTH 624 0
DWIDTH 6 0
BBX 7 10 0 0
BITMAP
00A0
01A4
0D58
0D28
1830
24A0
30D0
62D0
95C0
B4A0
ENDCHAR
STARTCHAR uring
ENCODING 367
SWIDTH 553 0
DWIDTH 6 0
BBX 6 8 0 0
BITMAP
0290
0250
0240
2490
25C0
7380
9A40
A680
ENDCHAR
STARTCHAR Uhungarumlaut
ENCODING 368
SWIDTH 624 0
DWIDTH 6 0
BBX 7 10 0 0
BITMAP
0088
0164
0D08
0D28
1830
24A0
30D0
62D0
95C0
B4A0
ENDCHAR
STARTCHAR uhungarumlaut
ENCODING 369
SWIDTH 553 0
DWIDTH 6 0
BBX 6 8 0 0
BITMAP
0120
0260
0440
2490
25C0
7380
9A40
A680
ENDCHAR
STARTCHAR Uogonek
ENCODING 370
SWIDTH 684 0
DWIDTH 7 0
BBX 7 10 0 -2
BITMAP
0A08
0918
0C34
1870
34E0
71A0
6690
7860
0080
0090
ENDCHAR
STARTCHAR uogonek
ENCODING 371
SWIDTH 553 0
DWIDTH 6 0
BBX 6 7 0 -2
BITMAP
2490
25C0
7380
9A40
A680
0200
0600
ENDCHAR
STARTCHAR Wcircumflex
ENCODING 372
SWIDTH 941 0
DWIDTH 9 0
BBX 10 10 0 0
BITMAP
000500
002600
2D0060
1A0470
0D3870
18B060
36A090
369180
689200
346800
ENDCHAR
STARTCHAR wcircumflex
ENCODING 373
SWIDTH 750 0
DWIDTH 8 0
BBX 8 8 0 0
BITMAP
0010
01B0
0110
248D
2589
3348
6B14
A290
ENDCHAR
STARTCHAR Ycircumflex
ENCODING 374
SWIDTH 580 0
DWIDTH 6 0
BBX 7 13 0 -3
BITMAP
0050
02A0
0D18
0C28
1870
24A0
31D0
A2C0
9680
B640
0600
0C00
6400
ENDCHAR
STARTCHAR ycircumflex
ENCODING 375
SWIDTH 549 0
DWIDTH 6 0
BBX 6 11 0 -3
BITMAP
0040
06C0
0440
2490
25C0
7280
AA40
B700
0500
1800
2000
ENDCHAR
STARTCHAR Ydieresis
ENCODING 376
SWIDTH 580 0
DWIDTH 6 0
BBX 7 12 0 -3
BITMAP
0368
0E1C
0C28
1870
24A0
31D0
A2C0
9680
B640
0600
0C00
6400
ENDCHAR
STARTCHAR Zacute
ENCODING 377
SWIDTH 501 0
DWIDTH 5 0
BBX 6 10 0 0
BITMAP
0050
0080
20A0
2FA0
0180
0340
0D00
3400
A000
EB40
ENDCHAR
STARTCHAR zacute
ENCODING 378
SWIDTH 430 0
DWIDTH 4 0
BBX 5 8 0 0
BITMAP
0080
0240
0100
2A40
0700
1800
6000
A900
ENDCHAR
STARTCHAR Zdotaccent
ENCODING 379
SWIDTH 501 0
DWIDTH 5 0
BBX 6 10 0 0
BITMAP
0140
0240
20A0
2FA0
0180
0340
0D00
3400
A000
EB40
ENDCHAR
STARTCHAR zdotaccent
ENCODING 380
SWIDTH 430 0
DWIDTH 4 0
BBX 5 8 0 0
BITMAP
0600
0100
0000
2A40
0700
1800
6000
A900
ENDCHAR
STARTCHAR Zcaron
ENCODING 381
SWIDTH 501 0
DWIDTH 5 0
BBX 6 10 0 0
BITMAP
0110
0290
20A0
2FA0
0180
0340
0D00
3400
A000
EB40
ENDCHAR
STARTCHAR zcaron
ENCODING 382
SWIDTH 430 0
DWIDTH 4 0
BBX 6 8 0 0
BITMAP
0890
0A40
0000
2A40
0700
1800
6000
A900
ENDCHAR
STARTCHAR florin
ENCODING 402
SWIDTH 466 0
DWIDTH 5 0
BBX 8 11 -2 -3
BITMAP
0019
0032
006A
00D0
02F4
0280
0240
0300
0600
4900
A800
ENDCHAR
STARTCHAR AEacute
ENCODING 508
SWIDTH 878 0
DWIDTH 9 0
BBX 11 10 -1 0
BITMAP
000080
000180
001EE4
006A14
018C70
024C00
0BFF40
0C1800
243480
601A40
ENDCHAR
STARTCHAR aeacute
ENCODING 509
SWIDTH 770 0
DWIDTH 8 0
BBX 8 8 0 0
BITMAP
0020
00A0
0040
0AA9
35C9
62A8
9784
79A8
ENDCHAR
STARTCHAR Scommaaccent
ENCODING 536
SWIDTH 474 0
DWIDTH 5 0
BBX 6 11 0 -3
BITMAP
0A80
1850
2490
2580
1C00
0A00
9600
6800
1000
3000
6000
ENDCHAR
STARTCHAR scommaaccent
ENCODING 537
SWIDTH 423 0
DWIDTH 4 0
BBX 4 8 0 -3
BITMAP
1A
32
28
4C
A8
10
60
50
ENDCHAR
STARTCHAR dotlessj
ENCODING 567
SWIDTH 277 0
DWIDTH 3 0
BBX 5 8 -2 -3
BITMAP
0340
0240
0300
0600
0900
0C00
2400
5000
ENDCHAR
STARTCHAR circumflex
ENCODING 710
SWIDTH 354 0
DWIDTH 4 0
BBX 4 2 0 6
BITMAP
1C
A5
ENDCHAR
STARTCHAR caron
ENCODING 711
SWIDTH 381 0
DWIDTH 4 0
BBX 4 2 0 6
BITMAP
56
24
ENDCHAR
STARTCHAR breve
ENCODING 728
SWIDTH 344 0
DWIDTH 3 0
BBX 4 2 0 6
BITMAP
55
78
ENDCHAR
STARTCHAR dotaccent
ENCODING 729
SWIDTH 217 0
DWIDTH 2 0
BBX 2 2 0 6
BITMAP
70
10
ENDCHAR
STARTCHAR ring
ENCODING 730
SWIDTH 402 0
DWIDTH 4 0
BBX 3 3 1 5
BITMAP
68
9C
64
ENDCHAR
STARTCHAR ogonek
ENCODING 731
SWIDTH 311 0
DWIDTH 3 0
BBX 3 3 0 -3
BITMAP
14
60
60
ENDCHAR
STARTCHAR tilde
ENCODING 732
SWIDTH 397 0
DWIDTH 4 0
BBX 5 2 0 6
BITMAP
2840
4A00
ENDCHAR
STARTCHAR hungarumlaut
ENCODING 733
SWIDTH 392 0
DWIDTH 4 0
BBX 4 3 0 5
BITMAP
01
26
59
ENDCHAR
STARTCHAR pi
ENCODING 960
SWIDTH 640 0
DWIDTH 6 0
BBX 7 5 0 0
BITMAP
2FF4
08C0
1580
7180
D1D0
ENDCHAR
STARTCHAR uni1E02
ENCODING 7682
SWIDTH 551 0
DWIDTH 6 0
BBX 6 10 0 0
BITMAP
0040
0180
1A90
2830
1C70
25D0
7B40
6180
9280
6A00
ENDCHAR
STARTCHAR uni1E03
ENCODING 7683
SWIDTH 525 0
DWIDTH 5 0
BBX 6 8 0 0
BITMAP
0C90
1C40
1800
2A80
35C0
6180
9340
6900
ENDCHAR
STARTCHAR uni1E0A
ENCODING 7690
SWIDTH 630 0
DWIDTH 6 0
BBX 7 10 0 0
BITMAP
0040
00C0
2E90
1434
0D24
2824
3430
7090
6280
6900
ENDCHAR
STARTCHAR uni1E0B
ENCODING 7691
SWIDTH 557 0
DWIDTH 6 0
BBX 7 8 0 0
BITMAP
0D24
0430
0060
0AD0
24C0
6280
A740
79C0
ENDCHAR
STARTCHAR uni1E1E
ENCODING 7710
SWIDTH 518 0
DWIDTH 5 0
BBX 6 10 0 0
BITMAP
0040
00D0
2E10
63A0
1600
0900
1F80
1800
2400
6000
ENDCHAR
STARTCHAR uni1E1F
ENCODING 7711
SWIDTH 393 0
DWIDTH 4 0
BBX 6 11 0 -1
BITMAP
0340
0280
0690
0C80
0C00
2F00
2400
3000
6000
9000
8000
ENDCHAR
STARTCHAR uni1E40
ENCODING 7744
SWIDTH 931 0
DWIDTH 9 0
BBX 11 10 -1 0
BITMAP
000040
000180
002874
00A4B0
027260
066690
09A8C0
18A8C0
20B180
9090E0
ENDCHAR
STARTCHAR uni1E41
ENCODING 7745
SWIDTH 814 0
DWIDTH 8 0
BBX 8 8 0 0
BITMAP
00A0
0050
0000
26CE
29AA
35CC
A258
821D
ENDCHAR
STARTCHAR uni1E56
ENCODING 7766
SWIDTH 553 0
DWIDTH 6 0
BBX 7 10 -1 0
BITMAP
0014
0024
06A4
090C
030C
0628
0B90
0C00
2800
6000
ENDCHAR
STARTCHAR uni1E57
ENCODING 7767
SWIDTH 550 0
DWIDTH 6 0
BBX 6 11 -1 -3
BITMAP
00D0
0040
0000
0DA0
0E30
0C30
1890
2A40
3000
6000
9000
ENDCHAR
STARTCHAR uni1E60
ENCODING 7776
SWIDTH 474 0
DWIDTH 5 0
BBX 6 10 0 0
BITMAP
0040
0180
0A80
1850
2490
2580
1C00
0A00
9600
6800
ENDCHAR
STARTCHAR uni1E61
ENCODING 7777
SWIDTH 423 0
DWIDTH 4 0
BBX 4 8 0 0
BITMAP
07
01
00
1A
32
28
4C
A8
ENDCHAR
STARTCHAR uni1E6A
ENCODING 7786
SWIDTH 430 0
DWIDTH 4 0
BBX 6 10 0 0
BITMAP
0040
0180
3D10
A3A0
4600
0900
0C00
1800
2400
6000
ENDCHAR
STARTCHAR uni1E6B
ENCODING 7787
SWIDTH 358 0
DWIDTH 4 0
BBX 4 8 0 0
BITMAP
07
05
0D
2E
24
30
60
38
ENDCHAR
STARTCHAR Wgrave
ENCODING 7808
SWIDTH 941 0
DWIDTH 9 0
BBX 10 10 0 0
BITMAP
001000
001800
2D0060
1A0470
0D3870
18B060
36A090
369180
689200
346800
ENDCHAR
STARTCHAR wgrave
ENCODING 7809
SWIDTH 750 0
DWIDTH 8 0
BBX 8 8 0 0
BITMAP
0080
00C0
0040
248D
2589
3348
6B14
A290
ENDCHAR
STARTCHAR Wacute
ENCODING 7810
SWIDTH 941 0
DWIDTH 9 0
BBX 10 10 0 0
BITMAP
000200
000900
2D0060
1A0470
0D3870
18B060
36A090
369180
689200
346800
ENDCHAR
STARTCHAR wacute
ENCODING 7811
SWIDTH 750 0
DWIDTH 8 0
BBX 8 8 0 0
BITMAP
0060
0090
0040
248D
2589
3348
6B14
A290
ENDCHAR
STARTCHAR Wdieresis
ENCODING 7812
SWIDTH 941 0
DWIDTH 9 0
BBX 10 10 0 0
BITMAP
001100
003340
2D0060
1A0470
0D3870
18B060
36A090
369180
689200
346800
ENDCHAR
STARTCHAR wdieresis
ENCODING 7813
SWIDTH 750 0
DWIDTH 8 0
BBX 8 8 0 0
BITMAP
0368
0110
0000
248D
2589
3348
6B14
A290
ENDCHAR
STARTCHAR Ygrave
ENCODING 7922
SWIDTH 580 0
DWIDTH 6 0
BBX 7 13 0 -3
BITMAP
0040
0180
0D18
0C28
1870
24A0
31D0
A2C0
9680
B640
0600
0C00
6400
ENDCHAR
STARTCHAR ygrave
ENCODING 7923
SWIDTH 549 0
DWIDTH 6 0
BBX 6 11 0 -3
BITMAP
0300
0300
0100
2490
25C0
7280
AA40
B700
0500
1800
2000
ENDCHAR
STARTCHAR endash
ENCODING 8211
SWIDTH 751 0
DWIDTH 8 0
BBX 6 1 1 3
BITMAP
BFE0
ENDCHAR
STARTCHAR emdash
ENCODING 8212
SWIDTH 1066 0
DWIDTH 11 0
BBX 9 1 1 3
BITMAP
BFFF80
ENDCHAR
STARTCHAR quoteleft
ENCODING 8216
SWIDTH 268 0
DWIDTH 3 0
BBX 2 3 1 6
BITMAP
10
60
60
ENDCHAR
STARTCHAR quoteright
ENCODING 8217
SWIDTH 268 0
DWIDTH 3 0
BBX 2 3 1 6
BITMAP
10
30
60
ENDCHAR
STARTCHAR quotesinglbase
ENCODING 8218
SWIDTH 268 0
DWIDTH 3 0
BBX 2 3 0 -1
BITMAP
50
60
90
ENDCHAR
STARTCHAR quotedblleft
ENCODING 8220
SWIDTH 485 0
DWIDTH 5 0
BBX 4 3 1 6
BITMAP
11
66
6A
ENDCHAR
STARTCHAR quotedblright
ENCODING 8221
SWIDTH 480 0
DWIDTH 5 0
BBX 5 3 1 6
BITMAP
1100
2740
6600
ENDCHAR
STARTCHAR quotedblbase
ENCODING 8222
SWIDTH 463 0
DWIDTH 5 0
BBX 4 3 0 -1
BITMAP
55
66
99
ENDCHAR
STARTCHAR dagger
ENCODING 8224
SWIDTH 488 0
DWIDTH 5 0
BBX 4 8 1 0
BITMAP
0C
1D
7E
24
30
60
80
80
ENDCHAR
STARTCHAR daggerdbl
ENCODING 8225
SWIDTH 488 0
DWIDTH 5 0
BBX 4 8 1 0
BITMAP
0C
1D
79
34
B8
60
80
80
ENDCHAR
STARTCHAR bullet
ENCODING 8226
SWIDTH 437 0
DWIDTH 4 0
BBX 3 3 1 2
BITMAP
B4
B4
10
ENDCHAR
STARTCHAR ellipsis
ENCODING 8230
SWIDTH 810 0
DWIDTH 8 0
BBX 7 2 0 -1
BITMAP
A35C
5104
ENDCHAR
STARTCHAR perthousand
ENCODING 8240
SWIDTH 1184 0
DWIDTH 12 0
BBX 11 8 0 0
BITMAP
1A1800
332000
665000
298000
026824
06699C
0899CC
2468A4
ENDCHAR
STARTCHAR guilsinglleft
ENCODING 8249
SWIDTH 413 0
DWIDTH 4 0
BBX 3 4 1 1
BITMAP
14
90
D0
20
ENDCHAR
STARTCHAR guilsinglright
ENCODING 8250
SWIDTH 416 0
DWIDTH 4 0
BBX 4 4 0 1
BITMAP
24
09
19
60
ENDCHAR
STARTCHAR fraction
ENCODING 8260
SWIDTH 580 0
DWIDTH 6 0
BBX 6 8 0 0
BITMAP
0050
0080
0240
0600
0800
1800
2000
9000
ENDCHAR
STARTCHAR Euro
ENCODING 8364
SWIDTH 622 0
DWIDTH 6 0
BBX 7 8 0 0
BITMAP
00A4
0358
0A28
0D20
2E40
7E00
2840
0A80
ENDCHAR
STARTCHAR trademark
ENCODING 8482
SWIDTH 1084 0
DWIDTH 11 0
BBX 8 5 2 3
BITMAP
A555
65DA
52A9
95A5
5441
ENDCHAR
STARTCHAR Omega
ENCODING 8486
SWIDTH 839 0
DWIDTH 8 0
BBX 8 8 0 0
BITMAP
0190
1928
3409
700A
700A
340D
1818
7E3A
ENDCHAR
STARTCHAR partialdiff
ENCODING 8706
SWIDTH 580 0
DWIDTH 6 0
BBX 6 8 0 0
BITMAP
0690
0560
0660
28A0
70D0
A1C0
9340
6900
ENDCHAR
STARTCHAR Delta
ENCODING 8710
SWIDTH 663 0
DWIDTH 7 0
BBX 7 6 0 0
BITMAP
0300
0A80
18C0
2090
5030
AAB4
ENDCHAR
STARTCHAR product
ENCODING 8719
SWIDTH 667 0
DWIDTH 7 0
BBX 6 9 0 -1
BITMAP
1AA0
7030
7030
7030
7030
7030
7030
7030
6020
ENDCHAR
STARTCHAR summation
ENCODING 8721
SWIDTH 677 0
DWIDTH 7 0
BBX 6 9 0 -1
BITMAP
1AA0
3400
1C00
0A00
0340
0600
1800
2000
BFE0
ENDCHAR
STARTCHAR minus
ENCODING 8722
SWIDTH 617 0
DWIDTH 6 0
BBX 6 1 0 3
BITMAP
6A90
ENDCHAR
STARTCHAR radical
ENCODING 8730
SWIDTH 709 0
DWIDTH 7 0
BBX 8 10 0 0
BITMAP
0001
0006
0009
001C
0024
2460
6890
0D80
0E00
0900
ENDCHAR
STARTCHAR infinity
ENCODING 8734
SWIDTH 681 0
DWIDTH 7 0
BBX 7 3 0 2
BITMAP
3AE4
5754
29A0
ENDCHAR
STARTCHAR integral
ENCODING 8747
SWIDTH 583 0
DWIDTH 6 0
BBX 8 12 -1 -2
BITMAP
0004
002A
0077
0090
00C0
0180
0280
0340
0300
5A00
9C00
6400
ENDCHAR
STARTCHAR approxequal
ENCODING 8776
SWIDTH 671 0
DWIDTH 7 0
BBX 6 5 0 1
BITMAP
0900
27A0
1540
2A60
4280
ENDCHAR
STARTCHAR notequal
ENCODING 8800
SWIDTH 617 0
DWIDTH 6 0
BBX 5 7 1 0
BITMAP
0140
0600
AE40
1800
BA40
9000
4000
ENDCHAR
STARTCHAR lessequal
ENCODING 8804
SWIDTH 704 0
DWIDTH 7 0
BBX 5 7 1 0
BITMAP
0140
0A00
A000
A000
1900
0140
AA40
ENDCHAR
STARTCHAR greaterequal
ENCODING 8805
SWIDTH 617 0
DWIDTH 6 0
BBX 6 7 0 0
BITMAP
2000
1900
0190
0280
1900
5000
6A90
ENDCHAR
STARTCHAR lozenge
ENCODING 9674
SWIDTH 580 0
DWIDTH 6 0
BBX 5 8 0 0
BITMAP
0400
0A00
2640
6080
5080
2180
1A00
0900
ENDCHAR
STARTCHAR commaaccent
ENCODING 63171
SWIDTH 250 0
DWIDTH 3 0
BBX 2 3 0 -3
BITMAP
10
30
40
ENDCHAR
STARTCHAR ff
ENCODING 64256
SWIDTH 773 0
DWIDTH 8 0
BBX 9 10 0 -1
BITMAP
028280
0599C0
0C8C80
0C1800
2FFE00
643000
306000
60A000
90D000
818000
ENDCHAR
STARTCHAR fi
ENCODING 64257
SWIDTH 623 0
DWIDTH 6 0
BBX 7 10 0 -2
BITMAP
01A0
0624
0C20
1EA0
7460
3090
70C0
A0D0
C000
4000
ENDCHAR
STARTCHAR fl
ENCODING 64258
SWIDTH 637 0
DWIDTH 6 0
BBX 7 10 0 -2
BITMAP
01A0
0618
0C24
2F30
2460
3090
60C0
90E0
C000
4000
ENDCHAR
STARTCHAR .notdef
ENCODING -1
SWIDTH 896 0
DWIDTH 9 0
BBX 10 9 0 0
BITMAP
02AAA0
07FFE0
0B7AD0
0F27C0
1F1F80
2F2F40
3D8B40
7FEF00
7FFD00
ENDCHAR
ENDFONT
